<?xml version="1.0" encoding="utf-8"?>
<!-- Generator: Adobe Illustrator 19.2.1, SVG Export Plug-In . SVG Version: 6.00 Build 0)  -->
<svg version="1.1" id="layer" xmlns="http://www.w3.org/2000/svg" xmlns:xlink="http://www.w3.org/1999/xlink" x="0px" y="0px"
	 viewBox="0 0 652 652" style="enable-background:new 0 0 652 652;" xml:space="preserve">
<style type="text/css">
	.st0{fill:#B01C87;}
	.st1{fill:#D30C55;}
	.st2{fill:#D40E8C;}
	.st3{fill:#ED1944;}
	.st4{fill:#554741;}
</style>
<g>
	<g id="Symbol">
		<path class="st0" d="M94.6,360.9v-61.1H110v61H94.6V360.9z M111.6,258.1c0-5.2-4.1-9.4-9.3-9.4s-9.4,4.2-9.4,9.4
			c0,5.2,4.2,9.3,9.4,9.3S111.6,263.3,111.6,258.1z"/>
		<path class="st1" d="M61.7,251.9v61H46.3v-61H61.7z M44.6,354.6c0,5.2,4.1,9.4,9.3,9.4s9.4-4.2,9.4-9.4c0-5.2-4.2-9.3-9.4-9.3
			C48.6,345.5,44.6,349.5,44.6,354.6z"/>
		<path class="st2" d="M132.6,289.9H71.5v-15.4h61v15.4H132.6z M29.8,272.8c-5.2,0-9.4,4.1-9.4,9.3c0,5.2,4.2,9.4,9.4,9.4
			s9.3-4.2,9.3-9.4C39.1,276.9,35,272.8,29.8,272.8z"/>
		<path class="st3" d="M23.7,322.9h61v15.4h-61V322.9z M126.4,339.8c5.2,0,9.4-4.1,9.4-9.3s-4.2-9.4-9.4-9.4s-9.3,4.2-9.3,9.4
			C117.2,335.8,121.3,339.8,126.4,339.8z"/>
	</g>
	<g id="Wordmark">
		<path id="Insight_1_" class="st4" d="M172.5,360.9v-109h17.9v109C190.4,360.9,172.5,360.9,172.5,360.9z M373.1,260.9
			c0-5.6-4.4-10.2-10.1-10.2s-10.2,4.6-10.2,10.2c0,5.6,4.6,10.1,10.2,10.1C368.6,271,373.1,266.5,373.1,260.9z M371.6,360.9v-77
			h-17.4v76.8h17.4V360.9z M273.2,314.5L273.2,314.5c0-21.2-13.5-32.7-35.8-32.7c-15.5,0-27.8,7.1-29.4,7.7v71.3h17.4v-61.4
			c1.8-0.8,7.1-2.9,12.9-2.9c11.8,0,17.6,6.5,17.6,17.8v46.5h17.4v-46.4H273.2z M538,314.5c0-20.1-14.1-32.8-32.1-32.8
			c-10.5,0-15.3,3.1-15.7,3.3v-37.1h-17.4v112.9h17.4v-61.4c0.5-0.3,5.7-2.9,12.4-2.9c11.6,0,18.2,6.3,18.2,17.8v46.5h17.4
			L538,314.5L538,314.5z M341.2,339.1c0-12.9-9.3-18.6-18.6-22.6c-1.6-0.7-6.7-2.7-7.4-3.1c-6.5-2.7-11.1-4.7-11.1-9.9
			c0-3.9,3.1-7.6,12.3-7.6c8.9,0,16.6,4.6,17.4,5l6.4-12c-0.5-0.3-9-6.9-24.8-6.9c-16.9,0-28.5,9.1-28.5,23
			c0,12.4,8.8,17.9,17.1,21.3c1,0.4,8.4,3.5,10.1,4.2c6.5,2.6,9.8,5.4,9.8,9.7c0,4.7-4.3,9-13.7,9c-9.8,0-18.2-5.5-19.5-6.3l-6.5,12
			c0.9,0.8,11.6,8.2,28.1,8.2C328.9,362.8,341.2,354.1,341.2,339.1z M455.9,289.5v65.7c0,23.6-10.7,40.4-38.4,40.4
			c-10.8,0-18.7-2.1-20.1-2.4V379c1.8,0.5,9.8,2.6,17.9,2.6c17.2,0,23.3-8.6,23.3-20.4v-1.4c-1.2,0.5-6.5,3-14.9,3
			c-24.8,0-38.4-18.6-38.4-40.5c0-23.1,14.4-40.6,40.4-40.6C441,281.8,453.9,288.5,455.9,289.5z M438.6,299.5
			c-1-0.5-6.3-2.9-13.3-2.9c-12.9,0-22.5,9.5-22.5,25.9c0,17.4,11,25.6,22.5,25.6c6.8,0,12.8-2.4,13.3-2.9V299.5z M570.9,298.2h19.6
			v-14.2h-19.7v-23h-17.1v69.3c0,21,9.4,30.7,30.1,30.7c0.7,0,6.9,0,6.9,0v-14.5c-14,0-19.6-4.1-19.6-18.4L570.9,298.2z"/>
		<path id="R_2_" class="st4" d="M613.2,350.2c-4.1,0-7.3,3.3-7.3,7.2l0,0c0,3.9,3.1,7.2,7.2,7.2s7.3-3.3,7.3-7.2l0,0
			C620.5,353.4,617.3,350.2,613.2,350.2z M619.4,357.4c0,3.4-2.6,6.1-6.1,6.1c-3.4,0-6-2.7-6-6.1l0,0c0-3.4,2.6-6.1,6.1-6.1
			C616.7,351.2,619.4,354,619.4,357.4L619.4,357.4z M614.9,358.1c0.9-0.4,1.6-1,1.6-2.2l0,0c0-0.7-0.3-1.2-0.7-1.6
			c-0.5-0.5-1.3-0.8-2.2-0.8h-3.3v7.3h1.6v-2.4h1.2l0,0l1.6,2.4h1.8L614.9,358.1z M614.9,356c0,0.7-0.4,1-1.3,1H612v-2.2h1.6
			C614.4,354.9,614.9,355.3,614.9,356L614.9,356z"/>
	</g>
</g>
</svg>
